<?xml version="1.0" encoding="UTF-8"?>
<svg id="Layer_2" xmlns="http://www.w3.org/2000/svg" xmlns:xlink="http://www.w3.org/1999/xlink" viewBox="0 0 196.77 82.3">
  <defs>
    <style>
      .cls-1 {
        fill: #48c2c5;
        font-family: ArialRoundedMTBold, 'Arial Rounded MT Bold';
        font-size: 24px;
      }

      .cls-2 {
        fill: url(#linear-gradient);
      }

      .cls-3 {
        fill: #49b3dd;
      }
    </style>
    <linearGradient id="linear-gradient" x1="12.05" y1="70.25" x2="70.25" y2="12.05" gradientUnits="userSpaceOnUse">
      <stop offset="0" stop-color="#423975"/>
      <stop offset="1" stop-color="#99579c"/>
    </linearGradient>
  </defs>
  <g id="Layer_1-2" data-name="Layer_1">
    <g>
      <circle class="cls-2" cx="41.15" cy="41.15" r="41.15"/>
      <text class="cls-1" transform="translate(24.2 46.42)"><tspan x="0" y="0">pacesentials</tspan></text>
      <g>
        <path class="cls-3" d="M16.07,46.42h-3.99c-1.07,0-1.93-.87-1.93-1.93h0c0-1.07.87-1.93,1.93-1.93h3.99c1.64,0,2.98-1.33,2.98-2.98v-.61c0-1.07.87-1.93,1.93-1.93h0c1.07,0,1.93.87,1.93,1.93v.61c0,3.78-3.06,6.84-6.84,6.84Z"/>
        <path class="cls-3" d="M16.99,30.52h3.99c1.07,0,1.93.87,1.93,1.93h0c0,1.07-.87,1.93-1.93,1.93h-3.99c-1.64,0-2.98,1.33-2.98,2.98v.61c0,1.07-.87,1.93-1.93,1.93h0c-1.07,0-1.93-.87-1.93-1.93v-.61c0-3.78,3.06-6.84,6.84-6.84Z"/>
      </g>
    </g>
  </g>
</svg>